<svg width="962" height="95" viewBox="0 0 962 95" fill="none" xmlns="http://www.w3.org/2000/svg">
<rect x="377" width="15" height="95" fill="white"/>
<rect x="392" y="40" width="40" height="15" fill="white"/>
<rect x="431" y="27" width="15" height="14" fill="white"/>
<rect x="431" y="54" width="15" height="14" fill="white"/>
<rect x="444" y="67" width="15" height="28" fill="white"/>
<rect x="444" width="15" height="28" fill="white"/>
<rect x="347" y="67" width="15" height="15" fill="white"/>
<rect x="293" width="55" height="15" fill="white"/>
<rect x="347" y="13" width="15" height="15" fill="white"/>
<rect x="279" y="13" width="15" height="69" fill="white"/>
<rect x="293" y="80" width="55" height="15" fill="white"/>
<rect x="195" width="55" height="15" fill="white"/>
<rect x="195" y="40" width="55" height="15" fill="white"/>
<rect x="182" y="13" width="15" height="82" fill="white"/>
<rect x="249" y="13" width="15" height="82" fill="white"/>
<rect width="69" height="15" fill="white"/>
<rect x="13" y="40" width="56" height="15" fill="white"/>
<rect x="13" y="80" width="56" height="15" fill="white"/>
<rect y="95" width="42" height="15" transform="rotate(-90 0 95)" fill="white"/>
<rect x="67" y="82" width="28" height="15" transform="rotate(-90 67 82)" fill="white"/>
<rect x="67" y="41" width="28" height="15" transform="rotate(-90 67 41)" fill="white"/>
<rect y="41" width="28" height="15" transform="rotate(-90 0 41)" fill="white"/>
<rect x="97" y="80" width="69" height="15" fill="white"/>
<rect x="97" y="95" width="95" height="15" transform="rotate(-90 97 95)" fill="white"/>
<rect x="488" width="56" height="15" fill="white"/>
<rect x="475" y="13" width="15" height="28" fill="white"/>
<rect x="542" y="13" width="15" height="15" fill="white"/>
<rect x="488" y="40" width="56" height="15" fill="white"/>
<rect x="542" y="54" width="15" height="28" fill="white"/>
<rect x="488" y="80" width="56" height="15" fill="white"/>
<rect x="475" y="67" width="15" height="15" fill="white"/>
<rect x="572" y="13" width="15" height="82" fill="white"/>
<rect x="586" width="28" height="15" fill="white"/>
<rect x="626" width="29" height="15" fill="white"/>
<rect x="613" y="13" width="15" height="82" fill="white"/>
<rect x="653" y="13" width="15" height="82" fill="white"/>
<rect x="684" width="29" height="15" fill="white"/>
<rect x="724" width="29" height="15" fill="white"/>
<rect x="684" y="80" width="29" height="15" fill="white"/>
<rect x="724" y="80" width="29" height="15" fill="white"/>
<rect x="711" y="13" width="15" height="69" fill="white"/>
<rect x="768" width="42" height="15" fill="white"/>
<rect x="808" y="13" width="15" height="82" fill="white"/>
<rect x="822" width="42" height="15" fill="white"/>
<rect x="879" width="15" height="95" fill="white"/>
<rect x="961" y="39" width="15" height="82" transform="rotate(90 961 39)" fill="white"/>
<rect x="946" width="15" height="95" fill="white"/>
</svg>
